<svg xmlns="http://www.w3.org/2000/svg" viewBox="0 0 512 512" role="img" aria-label="DEAD DC — mission data card">
  <defs>
    <radialGradient id="bg" cx="38%" cy="26%" r="95%">
      <stop offset="0%" stop-color="#143b46"/><stop offset="55%" stop-color="#0a1c22"/><stop offset="100%" stop-color="#04090b"/>
    </radialGradient>
    <linearGradient id="skull" x1="0" y1="0" x2="0" y2="1">
      <stop offset="0%" stop-color="#f04437"/><stop offset="100%" stop-color="#b3231b"/>
    </linearGradient>
  </defs>
  <!-- full-bleed background (maskable-safe) -->
  <rect width="512" height="512" fill="url(#bg)"/>
  <!-- faint range ring (family reticle cue) -->
  <circle cx="256" cy="232" r="196" fill="none" stroke="#123f6e" stroke-width="3" opacity="0.6"/>
  <!-- C-17 planform, card-blue line-art (this app's unique motif) -->
  <g fill="none" stroke="#185FA5" stroke-width="8" stroke-linejoin="round" stroke-linecap="round">
    <path d="M256 88 L272 100 L272 196 L430 250 L438 262 L276 238 L272 300 L340 338 L344 350 L276 330 L272 360 L262 374 L256 374 L250 374 L240 360 L236 330 L168 350 L172 338 L240 300 L236 238 L74 262 L82 250 L240 196 L240 100 Z"/>
  </g>
  <g fill="#0a1c22" stroke="#185FA5" stroke-width="3">
    <rect x="186" y="200" width="13" height="30" rx="6"/>
    <rect x="138" y="216" width="13" height="30" rx="6"/>
    <rect x="313" y="200" width="13" height="30" rx="6"/>
    <rect x="361" y="216" width="13" height="30" rx="6"/>
  </g>
  <!-- green north tick (family cue) -->
  <line x1="256" y1="34" x2="256" y2="74" stroke="#3ddc5a" stroke-width="8" stroke-linecap="round"/>
  <!-- DEAD skull (family hero), centered on the airframe -->
  <g transform="translate(256 232) scale(0.62) translate(-256 -240)">
    <path d="M256 150 c-58 0 -100 40 -100 95 c0 32 15 57 38 71 l0 31 c0 10 8 18 18 18 l88 0 c10 0 18 -8 18 -18 l0 -31 c23 -14 38 -39 38 -71 c0 -55 -42 -95 -100 -95 z" fill="url(#skull)"/>
    <path d="M198 236 l50 -16 l0 38 l-34 9 c-13 -9 -18 -19 -16 -31 z" fill="#0a1418"/>
    <path d="M314 236 l-50 -16 l0 38 l34 9 c13 -9 18 -19 16 -31 z" fill="#0a1418"/>
    <path d="M256 270 l-10 20 l20 0 z" fill="#0a1418"/>
    <g fill="#0a1418"><rect x="234" y="300" width="5" height="30" rx="2"/><rect x="253" y="300" width="6" height="32" rx="2"/><rect x="273" y="300" width="5" height="30" rx="2"/></g>
  </g>
  <!-- DEAD DC banner -->
  <rect x="72" y="388" width="368" height="66" rx="13" fill="#04090b" opacity="0.86"/>
  <rect x="72" y="388" width="368" height="66" rx="13" fill="none" stroke="#185FA5" stroke-width="3" opacity="0.9"/>
  <text x="256" y="421" text-anchor="middle" dominant-baseline="central" font-family="'Arial Narrow','Helvetica Neue',Impact,sans-serif" font-weight="800" font-size="50" letter-spacing="11" fill="#f4f7fa">DEAD DC</text>
</svg>
